<?xml version="1.0" encoding="UTF-8" standalone="no"?>
<!DOCTYPE svg PUBLIC "-//W3C//DTD SVG 1.1//EN" "http://www.w3.org/Graphics/SVG/1.1/DTD/svg11.dtd">
<svg width="100%" height="100%" viewBox="0 0 16 16" version="1.1" xmlns="http://www.w3.org/2000/svg" style="fill-rule:evenodd;clip-rule:evenodd;stroke-linejoin:round;stroke-miterlimit:2;">
    <g id="Layer-1">
        <g id="g865">
            <g id="g831">
                <path id="path839" d="M2,0L11,0L14,3L14,16L2,16L2,0Z" style="fill:rgb(175,40,46);fill-rule:nonzero;"/>
                <path id="path841" d="M3,1L10.5,1L13,3.5L13,15L3,15L3,1Z" style="fill:white;fill-rule:nonzero;"/>
                <g transform="matrix(0.0241219,0,0,0.0262534,1.82851,2.28461)">
                    <path d="M414.5,316.8C412.4,318.1 406.4,318.9 402.6,318.9C390.2,318.9 375,313.2 353.5,304C361.8,303.4 369.3,303.1 376.1,303.1C388.5,303.1 392.1,303.1 404.3,306.2C416.4,309.2 416.5,315.5 414.5,316.8ZM199.4,318.7C204.2,310.3 209.1,301.4 214.1,291.9C226.3,268.8 234.1,250.6 239.8,235.7C251.3,256.6 265.6,274.3 282.3,288.5C284.4,290.3 286.6,292 289,293.8C254.9,300.6 225.4,308.8 199.4,318.7ZM239.2,99.8C246,99.8 249.9,116.86 250.2,132.96C250.5,148.96 246.8,160.16 242.1,168.56C238.2,156.16 236.4,136.76 236.4,124.06C236.4,124.06 236.1,99.8 239.2,99.8ZM105.8,407C109.7,396.5 124.9,375.7 147.4,357.2C148.8,356.1 152.3,352.8 155.5,349.8C132,387.4 116.2,402.3 105.8,407ZM421,294.7C414.2,288 399,284.5 376,284.2C360.4,284 341.7,285.4 321.9,288.1C313.1,283 304,277.5 296.8,270.8C277.6,252.8 261.6,227.9 251.6,200.5C252.2,197.9 252.8,195.7 253.3,193.4C253.3,193.4 264.1,131.9 261.2,111.1C260.8,108.2 260.6,107.4 259.8,105.2L258.9,102.7C256,95.94 250.2,88.74 241.1,89.13L235.8,88.96L235.7,88.96C225.6,88.96 217.3,94.13 215.2,101.8C208.6,126.1 215.4,162.3 227.7,209.2L224.5,216.9C215.7,238.3 204.7,259.9 195,278.9L193.7,281.4C183.5,301.4 174.2,318.4 165.8,332.8L157.1,337.4C156.5,337.8 141.6,345.6 138.1,347.7C108.5,365.4 88.82,385.5 85.56,401.5C84.52,406.5 85.3,413 90.57,416.1L98.97,420.3C102.6,422.1 106.5,423 110.4,423C131.5,423 156,396.8 189.7,337.9C228.7,325.2 273.1,314.6 312,308.8C341.6,325.5 378,337.1 401,337.1C405.1,337.1 408.6,336.7 411.5,335.9C415.9,334.8 419.6,332.3 421.9,328.8C426.3,322.1 427.3,312.9 426,303.4C425.7,300.6 423.4,297.1 421,294.7Z" style="fill:rgb(176,0,0);fill-rule:nonzero;"/>
                </g>
                <path id="rect843" d="M10,0L10,4L14,4L14,3L11,0L10,0Z" style="fill:rgb(175,40,46);fill-rule:nonzero;"/>
            </g>
        </g>
    </g>
</svg>
