<svg version="1.1" xmlns="http://www.w3.org/2000/svg" xmlns:xlink="http://www.w3.org/1999/xlink" width="2400" height="1600" viewBox="0 0 2400 1600">
<path id="Rectángulo-1" d="M0.000,0.000 L800.000,0.000 L800.000,1600.000 L0.000,1600.000 L0.000,0.000 z" fill="#000080" />
<path id="Polígono-1-copia" d="M800.000,674.142 L704.394,742.987 L741.372,631.377 L644.997,562.537 L763.957,562.763 L800.000,452.542 L800.000,674.142 z" fill="#FFFFFF" />
<path id="Polígono-1-copia" d="M800.000,1079.142 L704.394,1147.987 L741.372,1036.377 L644.997,967.537 L763.957,967.763 L800.000,857.542 L800.000,1079.142 z" fill="#FFFFFF" />
<path id="Rectángulo-1" d="M800.000,0.000 L1600.000,0.000 L1600.000,1600.000 L800.000,1600.000 L800.000,0.000 z" fill="#FFFFFF" />
<path id="Polígono-1" d="M896.606,742.987 L800.500,673.782 L800.000,674.142 L800.000,452.542 L800.500,451.013 L837.043,562.763 L956.003,562.537 L859.628,631.377 L896.606,742.987 z" fill="#000080" />
<path id="Polígono-1" d="M896.606,1147.987 L800.500,1078.782 L800.000,1079.142 L800.000,857.542 L800.500,856.013 L837.043,967.763 L956.003,967.537 L859.628,1036.377 L896.606,1147.987 z" fill="#000080" />
<path id="Rectángulo-1" d="M1600.000,0.000 L2400.000,0.000 L2400.000,1600.000 L1600.000,1600.000 L1600.000,0.000 z" fill="#ED292B" />
<path id="Rectángulo-2" d="M1960.000,238.000 L2038.000,238.000 L2038.000,558.000 L1960.000,558.000 L1960.000,238.000 z" fill="#FFFFFF" />
<path id="Rectángulo-2-cop" d="M1839.000,359.000 L2159.000,359.000 L2159.000,437.000 L1839.000,437.000 L1839.000,359.000 z" fill="#FFFFFF" />
<path id="Polígono-1" d="M402.500,249.013 L439.043,360.763 L558.003,360.537 L461.628,429.377 L498.606,540.987 L402.500,471.782 L306.394,540.987 L343.372,429.377 L246.997,360.537 L365.957,360.763 L402.500,249.013 z" fill="#FFFFFF" />
<path id="Polígono-1" d="M402.500,654.013 L439.043,765.763 L558.003,765.537 L461.628,834.377 L498.606,945.987 L402.500,876.782 L306.394,945.987 L343.372,834.377 L246.997,765.537 L365.957,765.763 L402.500,654.013 z" fill="#FFFFFF" />
<path id="Polígono-1" d="M1198.500,654.013 L1235.043,765.763 L1354.003,765.537 L1257.628,834.377 L1294.606,945.987 L1198.500,876.782 L1102.394,945.987 L1139.372,834.377 L1042.997,765.537 L1161.957,765.763 L1198.500,654.013 z" fill="#000080" />
<path id="Polígono-1" d="M402.500,1059.013 L439.043,1170.763 L558.003,1170.537 L461.628,1239.377 L498.606,1350.987 L402.500,1281.782 L306.394,1350.987 L343.372,1239.377 L246.997,1170.537 L365.957,1170.763 L402.500,1059.013 z" fill="#FFFFFF" />
</svg>
